<?xml version="1.0" standalone="no"?><svg xmlns:xlink="http://www.w3.org/1999/xlink" xmlns="http://www.w3.org/2000/svg" viewBox="0 0 1000 499.99999999999994" preserveAspectRatio="xMaxYMax slice"><g transform="scale(1.408450704225352)"><rect x="0" y="0" width="710" height="355" fill="#ffffff"/><rect x="266.25" y="0" width="88.75" height="88.75" fill="#ffffff"/><rect x="266.25" y="0" width="44.38" height="44.38" fill="#fdcdc2"/><polygon points="266.25,0 310.63,0 310.63,44.38" fill="#fee2db"/><rect x="310.63" y="0" width="44.38" height="44.38" fill="#fad696"/><polygon points="310.63,0 355.01,0 310.63,44.38" fill="#87d7df"/><rect x="266.25" y="44.38" width="44.38" height="44.38" fill="#aee4e9"/><polygon points="310.63,44.38 310.63,88.76 266.25,88.76" fill="#a8e2e8"/><rect x="355" y="0" width="88.75" height="88.75" fill="#ffffff"/><rect x="355" y="0" width="44.38" height="44.38" fill="#fbd99c"/><polygon points="399.38,0 399.38,44.38 355,44.38" fill="#fef0ed"/><rect x="399.38" y="0" width="44.38" height="44.38" fill="#fce0ae"/><polygon points="443.76,0 443.76,44.38 399.38,44.38" fill="#fffdf9"/><rect x="355" y="44.38" width="44.38" height="44.38" fill="#feded7"/><polygon points="355,44.38 399.38,44.38 399.38,88.76" fill="#fee9e5"/><rect x="399.38" y="44.38" width="44.38" height="44.38" fill="#fdd0c5"/><polygon points="399.38,44.38 443.76,44.38 399.38,88.76" fill="#d1eff3"/><rect x="443.75" y="0" width="88.75" height="88.75" fill="#ffffff"/><rect x="443.75" y="0" width="44.38" height="44.38" fill="#fbd798"/><polygon points="443.75,0 488.13,44.38 443.75,44.38" fill="#fff9f8"/><rect x="443.75" y="44.38" width="44.38" height="44.38" fill="#fad491"/><polygon points="443.75,44.38 488.13,44.38 443.75,88.76" fill="#83d5de"/><rect x="532.5" y="0" width="88.75" height="88.75" fill="#ffffff"/><rect x="532.5" y="0" width="44.38" height="44.38" fill="#fff8f7"/><polygon points="532.5,0 576.88,0 576.88,44.38" fill="#bce8ed"/><rect x="532.5" y="44.38" width="44.38" height="44.38" fill="#f6fcfc"/><polygon points="532.5,44.38 576.88,44.38 532.5,88.76" fill="#fffaf8"/><rect x="0" y="88.75" width="88.75" height="88.75" fill="#ffffff"/><rect x="0" y="88.75" width="44.38" height="44.38" fill="#80d4dd"/><polygon points="44.38,88.75 44.38,133.13 0,133.13" fill="#fffefd"/><rect x="44.38" y="88.75" width="44.38" height="44.38" fill="#92dae2"/><polygon points="44.38,88.75 88.76,88.75 44.38,133.13" fill="#c5ecf0"/><rect x="0" y="133.13" width="44.38" height="44.38" fill="#fedcd4"/><polygon points="0,133.13 44.38,133.13 44.38,177.51" fill="#fad696"/><rect x="44.38" y="133.13" width="44.38" height="44.38" fill="#fff3f0"/><polygon points="44.38,133.13 88.76,133.13 88.76,177.51" fill="#e6f6f8"/><rect x="88.75" y="88.75" width="88.75" height="88.75" fill="#ffffff"/><rect x="133.13" y="88.75" width="44.38" height="44.38" fill="#fef7eb"/><polygon points="133.13,88.75 177.51,88.75 177.51,133.13" fill="#fce4b9"/><rect x="177.5" y="88.75" width="88.75" height="88.75" fill="#ffffff"/><rect x="177.5" y="88.75" width="44.38" height="44.38" fill="#fdcabf"/><polygon points="221.88,88.75 221.88,133.13 177.5,133.13" fill="#d3f0f3"/><rect x="221.88" y="88.75" width="44.38" height="44.38" fill="#fce3b5"/><polygon points="221.88,88.75 266.26,133.13 221.88,133.13" fill="#fce1b0"/><rect x="221.88" y="133.13" width="44.38" height="44.38" fill="#d6f1f4"/><polygon points="221.88,133.13 266.26,133.13 266.26,177.51" fill="#fdcdc2"/><rect x="266.25" y="88.75" width="88.75" height="88.75" fill="#ffffff"/><rect x="266.25" y="88.75" width="44.38" height="44.38" fill="#fdcabe"/><polygon points="266.25,88.75 310.63,88.75 310.63,133.13" fill="#fefaf2"/><rect x="266.25" y="133.13" width="44.38" height="44.38" fill="#fef3df"/><polygon points="266.25,133.13 310.63,177.51 266.25,177.51" fill="#fbdeaa"/><rect x="310.63" y="133.13" width="44.38" height="44.38" fill="#fdccc0"/><polygon points="310.63,133.13 355.01,133.13 355.01,177.51" fill="#fee3dd"/><rect x="443.75" y="88.75" width="88.75" height="88.75" fill="#ffffff"/><rect x="443.75" y="88.75" width="44.38" height="44.38" fill="#9adde4"/><polygon points="443.75,88.75 488.13,88.75 443.75,133.13" fill="#eef9fa"/><rect x="488.13" y="88.75" width="44.38" height="44.38" fill="#fdd1c7"/><polygon points="532.51,88.75 532.51,133.13 488.13,133.13" fill="#fffaf9"/><rect x="488.13" y="133.13" width="44.38" height="44.38" fill="#fdd0c6"/><polygon points="488.13,133.13 532.51,177.51 488.13,177.51" fill="#fee0da"/><rect x="621.25" y="88.75" width="88.75" height="88.75" fill="#ffffff"/><rect x="621.25" y="88.75" width="44.38" height="44.38" fill="#fff7f5"/><polygon points="621.25,88.75 665.63,88.75 665.63,133.13" fill="#f6fcfd"/><rect x="665.63" y="88.75" width="44.38" height="44.38" fill="#fdefd6"/><polygon points="710.01,88.75 710.01,133.13 665.63,133.13" fill="#fffefe"/><rect x="621.25" y="133.13" width="44.38" height="44.38" fill="#afe4ea"/><polygon points="665.63,133.13 665.63,177.51 621.25,177.51" fill="#fce3b7"/><rect x="665.63" y="133.13" width="44.38" height="44.38" fill="#f4fbfc"/><polygon points="710.01,133.13 710.01,177.51 665.63,177.51" fill="#fad28a"/><rect x="0" y="177.5" width="88.75" height="88.75" fill="#ffffff"/><rect x="44.38" y="177.5" width="44.38" height="44.38" fill="#fdefd6"/><polygon points="44.38,177.5 88.76,177.5 88.76,221.88" fill="#b6e6eb"/><rect x="0" y="221.88" width="44.38" height="44.38" fill="#f8fdfd"/><polygon points="44.38,221.88 44.38,266.26 0,266.26" fill="#90dae2"/><rect x="44.38" y="221.88" width="44.38" height="44.38" fill="#e4f6f8"/><polygon points="44.38,221.88 88.76,221.88 44.38,266.26" fill="#fbdaa0"/><rect x="88.75" y="177.5" width="88.75" height="88.75" fill="#ffffff"/><rect x="88.75" y="177.5" width="44.38" height="44.38" fill="#8fd9e1"/><polygon points="88.75,177.5 133.13,177.5 88.75,221.88" fill="#fef1ee"/><rect x="133.13" y="177.5" width="44.38" height="44.38" fill="#a2e0e6"/><polygon points="133.13,177.5 177.51,177.5 177.51,221.88" fill="#b8e7ec"/><rect x="88.75" y="221.88" width="44.38" height="44.38" fill="#88d7df"/><polygon points="88.75,221.88 133.13,266.26 88.75,266.26" fill="#fdd3ca"/><rect x="133.13" y="221.88" width="44.38" height="44.38" fill="#fff2ef"/><polygon points="133.13,221.88 177.51,266.26 133.13,266.26" fill="#feece8"/><rect x="177.5" y="177.5" width="88.75" height="88.75" fill="#ffffff"/><rect x="177.5" y="177.5" width="44.38" height="44.38" fill="#fff2ef"/><polygon points="177.5,177.5 221.88,177.5 221.88,221.88" fill="#fdd2c8"/><rect x="177.5" y="221.88" width="44.38" height="44.38" fill="#fdccc1"/><polygon points="177.5,221.88 221.88,221.88 177.5,266.26" fill="#fee5df"/><rect x="221.88" y="221.88" width="44.38" height="44.38" fill="#98dce4"/><polygon points="221.88,221.88 266.26,221.88 221.88,266.26" fill="#fee0da"/><rect x="266.25" y="177.5" width="88.75" height="88.75" fill="#ffffff"/><rect x="266.25" y="177.5" width="44.38" height="44.38" fill="#fbdfad"/><polygon points="266.25,177.5 310.63,221.88 266.25,221.88" fill="#f6fcfd"/><rect x="310.63" y="177.5" width="44.38" height="44.38" fill="#fdd1c7"/><polygon points="310.63,177.5 355.01,177.5 355.01,221.88" fill="#fed8cf"/><rect x="266.25" y="221.88" width="44.38" height="44.38" fill="#fffcf7"/><polygon points="266.25,221.88 310.63,221.88 266.25,266.26" fill="#fad490"/><rect x="310.63" y="221.88" width="44.38" height="44.38" fill="#fef8ed"/><polygon points="310.63,221.88 355.01,221.88 310.63,266.26" fill="#fffcf7"/><rect x="355" y="177.5" width="88.75" height="88.75" fill="#ffffff"/><rect x="355" y="177.5" width="44.38" height="44.38" fill="#feefeb"/><polygon points="355,177.5 399.38,177.5 355,221.88" fill="#fff3f0"/><rect x="399.38" y="221.88" width="44.38" height="44.38" fill="#fef1ed"/><polygon points="399.38,221.88 443.76,266.26 399.38,266.26" fill="#fbdeaa"/><rect x="532.5" y="177.5" width="88.75" height="88.75" fill="#ffffff"/><rect x="576.88" y="177.5" width="44.38" height="44.38" fill="#fbd89a"/><polygon points="576.88,177.5 621.26,221.88 576.88,221.88" fill="#fef3e1"/><rect x="576.88" y="221.88" width="44.38" height="44.38" fill="#f7fcfd"/><polygon points="576.88,221.88 621.26,221.88 621.26,266.26" fill="#fef8ed"/><rect x="621.25" y="177.5" width="88.75" height="88.75" fill="#ffffff"/><rect x="621.25" y="177.5" width="44.38" height="44.38" fill="#b2e5ea"/><polygon points="665.63,177.5 665.63,221.88 621.25,221.88" fill="#fdebcc"/><rect x="665.63" y="177.5" width="44.38" height="44.38" fill="#e6f7f8"/><polygon points="710.01,177.5 710.01,221.88 665.63,221.88" fill="#feece8"/><rect x="177.5" y="266.25" width="88.75" height="88.75" fill="#ffffff"/><rect x="221.88" y="310.63" width="44.38" height="44.38" fill="#fdd5cb"/><polygon points="221.88,310.63 266.26,310.63 266.26,355.01" fill="#fee5e0"/><rect x="443.75" y="266.25" width="88.75" height="88.75" fill="#ffffff"/><rect x="443.75" y="266.25" width="44.38" height="44.38" fill="#ffffff"/><polygon points="488.13,266.25 488.13,310.63 443.75,310.63" fill="#fce3b6"/><rect x="488.13" y="266.25" width="44.38" height="44.38" fill="#fce6bd"/><polygon points="488.13,266.25 532.51,266.25 532.51,310.63" fill="#fdeed2"/><rect x="443.75" y="310.63" width="44.38" height="44.38" fill="#fbdda7"/><polygon points="443.75,310.63 488.13,310.63 443.75,355.01" fill="#96dce3"/><rect x="532.5" y="266.25" width="88.75" height="88.75" fill="#ffffff"/><rect x="532.5" y="266.25" width="44.38" height="44.38" fill="#ceeef2"/><polygon points="532.5,266.25 576.88,266.25 532.5,310.63" fill="#fff8f6"/><rect x="576.88" y="266.25" width="44.38" height="44.38" fill="#9bdde4"/><polygon points="576.88,266.25 621.26,266.25 576.88,310.63" fill="#fef5e5"/><rect x="532.5" y="310.63" width="44.38" height="44.38" fill="#fad084"/><polygon points="532.5,310.63 576.88,355.01 532.5,355.01" fill="#fdefd5"/><rect x="576.88" y="310.63" width="44.38" height="44.38" fill="#fee5df"/><polygon points="621.26,310.63 621.26,355.01 576.88,355.01" fill="#a7e1e8"/></g></svg>